<svg class="plot-d6a7b5" fill="currentColor" font-family="system-ui, sans-serif" font-size="10" text-anchor="middle" width="1000" height="1700" viewBox="0 0 1000 1700" xmlns="http://www.w3.org/2000/svg" xmlns:xlink="http://www.w3.org/1999/xlink"><style>.plot-d6a7b5 {
  display: block;
  background: white;
  height: auto;
  height: intrinsic;
  max-width: 100%;
}
.plot-d6a7b5 text,
.plot-d6a7b5 tspan {
  white-space: pre;
}</style><g aria-label="cell"><g stroke="steelblue" transform="translate(2,3)"><rect x="65" width="53" y="55" height="44" fill="yellow"/><rect x="6" width="53" y="55" height="44" fill="white"/><rect x="65" width="53" y="6" height="44" fill="white"/><rect x="124" width="53" y="55" height="44" fill="white"/><rect x="124" width="53" y="104" height="44" fill="white"/></g><g stroke="steelblue" transform="translate(2,174)"><rect x="65" width="53" y="55" height="44" fill="yellow"/><rect x="65" width="53" y="6" height="44" fill="white"/><rect x="124" width="53" y="6" height="44" fill="white"/><rect x="6" width="53" y="55" height="44" fill="white"/><rect x="124" width="53" y="55" height="44" fill="white"/><rect x="6" width="53" y="104" height="44" fill="white"/><rect x="65" width="53" y="104" height="44" fill="white"/><rect x="124" width="53" y="104" height="44" fill="white"/></g><g stroke="steelblue" transform="translate(2,345)"><rect x="65" width="53" y="55" height="44" fill="yellow"/></g><g stroke="steelblue" transform="translate(2,516)"><rect x="65" width="53" y="55" height="44" fill="yellow"/><rect x="65" width="53" y="6" height="44" fill="white"/><rect x="6" width="53" y="55" height="44" fill="white"/><rect x="124" width="53" y="55" height="44" fill="white"/><rect x="65" width="53" y="104" height="44" fill="white"/></g><g stroke="steelblue" transform="translate(2,687)"><rect x="65" width="53" y="55" height="44" fill="yellow"/><rect x="6" width="53" y="6" height="44" fill="white"/><rect x="65" width="53" y="6" height="44" fill="white"/><rect x="6" width="53" y="55" height="44" fill="white"/><rect x="6" width="53" y="104" height="44" fill="white"/><rect x="65" width="53" y="104" height="44" fill="white"/></g><g stroke="steelblue" transform="translate(2,858)"><rect x="65" width="53" y="55" height="44" fill="yellow"/><rect x="124" width="53" y="55" height="44" fill="white"/><rect x="6" width="53" y="104" height="44" fill="white"/><rect x="65" width="53" y="104" height="44" fill="white"/><rect x="124" width="53" y="104" height="44" fill="white"/></g><g stroke="steelblue" transform="translate(2,1029)"><rect x="65" width="53" y="55" height="44" fill="yellow"/><rect x="6" width="53" y="6" height="44" fill="white"/><rect x="65" width="53" y="6" height="44" fill="white"/><rect x="6" width="53" y="55" height="44" fill="white"/><rect x="124" width="53" y="55" height="44" fill="white"/><rect x="124" width="53" y="104" height="44" fill="white"/></g><g stroke="steelblue" transform="translate(2,1200)"><rect x="65" width="53" y="55" height="44" fill="yellow"/><rect x="6" width="53" y="6" height="44" fill="white"/><rect x="65" width="53" y="6" height="44" fill="white"/><rect x="124" width="53" y="6" height="44" fill="white"/><rect x="6" width="53" y="55" height="44" fill="white"/><rect x="124" width="53" y="55" height="44" fill="white"/><rect x="65" width="53" y="104" height="44" fill="white"/></g><g stroke="steelblue" transform="translate(2,1371)"><rect x="65" width="53" y="55" height="44" fill="yellow"/><rect x="6" width="53" y="6" height="44" fill="white"/><rect x="65" width="53" y="6" height="44" fill="white"/><rect x="124" width="53" y="6" height="44" fill="white"/><rect x="6" width="53" y="104" height="44" fill="white"/><rect x="65" width="53" y="104" height="44" fill="white"/><rect x="124" width="53" y="104" height="44" fill="white"/></g><g stroke="steelblue" transform="translate(2,1542)"><rect x="65" width="53" y="55" height="44" fill="yellow"/><rect x="6" width="53" y="6" height="44" fill="white"/><rect x="124" width="53" y="6" height="44" fill="white"/><rect x="6" width="53" y="55" height="44" fill="white"/><rect x="6" width="53" y="104" height="44" fill="white"/><rect x="65" width="53" y="104" height="44" fill="white"/></g><g stroke="steelblue" transform="translate(205,3)"><rect x="65" width="53" y="55" height="44" fill="yellow"/></g><g stroke="steelblue" transform="translate(205,174)"><rect x="65" width="53" y="55" height="44" fill="yellow"/><rect x="65" width="53" y="6" height="44" fill="white"/><rect x="6" width="53" y="55" height="44" fill="white"/><rect x="124" width="53" y="55" height="44" fill="white"/></g><g stroke="steelblue" transform="translate(205,345)"><rect x="65" width="53" y="55" height="44" fill="yellow"/><rect x="6" width="53" y="6" height="44" fill="white"/><rect x="124" width="53" y="6" height="44" fill="white"/><rect x="6" width="53" y="55" height="44" fill="white"/><rect x="124" width="53" y="55" height="44" fill="white"/><rect x="65" width="53" y="104" height="44" fill="white"/><rect x="124" width="53" y="104" height="44" fill="white"/></g><g stroke="steelblue" transform="translate(205,516)"><rect x="65" width="53" y="55" height="44" fill="yellow"/><rect x="6" width="53" y="6" height="44" fill="white"/><rect x="65" width="53" y="6" height="44" fill="white"/><rect x="124" width="53" y="6" height="44" fill="white"/><rect x="6" width="53" y="55" height="44" fill="white"/><rect x="124" width="53" y="55" height="44" fill="white"/><rect x="65" width="53" y="104" height="44" fill="white"/><rect x="124" width="53" y="104" height="44" fill="white"/></g><g stroke="steelblue" transform="translate(205,687)"><rect x="65" width="53" y="55" height="44" fill="yellow"/><rect x="6" width="53" y="6" height="44" fill="white"/><rect x="6" width="53" y="55" height="44" fill="white"/><rect x="6" width="53" y="104" height="44" fill="white"/><rect x="65" width="53" y="104" height="44" fill="white"/><rect x="124" width="53" y="104" height="44" fill="white"/></g><g stroke="steelblue" transform="translate(205,858)"><rect x="65" width="53" y="55" height="44" fill="yellow"/><rect x="65" width="53" y="6" height="44" fill="white"/><rect x="6" width="53" y="55" height="44" fill="white"/><rect x="124" width="53" y="55" height="44" fill="white"/><rect x="6" width="53" y="104" height="44" fill="white"/><rect x="65" width="53" y="104" height="44" fill="white"/><rect x="124" width="53" y="104" height="44" fill="white"/></g><g stroke="steelblue" transform="translate(205,1029)"><rect x="65" width="53" y="55" height="44" fill="yellow"/><rect x="124" width="53" y="6" height="44" fill="white"/><rect x="6" width="53" y="55" height="44" fill="white"/><rect x="124" width="53" y="55" height="44" fill="white"/><rect x="6" width="53" y="104" height="44" fill="white"/><rect x="65" width="53" y="104" height="44" fill="white"/><rect x="124" width="53" y="104" height="44" fill="white"/></g><g stroke="steelblue" transform="translate(205,1200)"><rect x="65" width="53" y="55" height="44" fill="yellow"/><rect x="65" width="53" y="6" height="44" fill="white"/><rect x="124" width="53" y="55" height="44" fill="white"/><rect x="65" width="53" y="104" height="44" fill="white"/><rect x="124" width="53" y="104" height="44" fill="white"/></g><g stroke="steelblue" transform="translate(205,1371)"><rect x="65" width="53" y="55" height="44" fill="yellow"/><rect x="6" width="53" y="6" height="44" fill="white"/><rect x="65" width="53" y="6" height="44" fill="white"/><rect x="124" width="53" y="6" height="44" fill="white"/><rect x="6" width="53" y="55" height="44" fill="white"/><rect x="124" width="53" y="55" height="44" fill="white"/><rect x="6" width="53" y="104" height="44" fill="white"/><rect x="65" width="53" y="104" height="44" fill="white"/><rect x="124" width="53" y="104" height="44" fill="white"/></g><g stroke="steelblue" transform="translate(205,1542)"><rect x="65" width="53" y="55" height="44" fill="yellow"/><rect x="124" width="53" y="55" height="44" fill="white"/><rect x="65" width="53" y="104" height="44" fill="white"/></g><g stroke="steelblue" transform="translate(408,3)"><rect x="65" width="53" y="55" height="44" fill="yellow"/><rect x="6" width="53" y="6" height="44" fill="white"/><rect x="6" width="53" y="55" height="44" fill="white"/><rect x="65" width="53" y="6" height="44" fill="white"/><rect x="124" width="53" y="6" height="44" fill="white"/><rect x="124" width="53" y="55" height="44" fill="white"/></g><g stroke="steelblue" transform="translate(408,174)"><rect x="65" width="53" y="55" height="44" fill="yellow"/><rect x="65" width="53" y="6" height="44" fill="white"/><rect x="124" width="53" y="6" height="44" fill="white"/><rect x="6" width="53" y="55" height="44" fill="white"/></g><g stroke="steelblue" transform="translate(408,345)"><rect x="65" width="53" y="55" height="44" fill="yellow"/><rect x="65" width="53" y="6" height="44" fill="white"/><rect x="124" width="53" y="6" height="44" fill="white"/><rect x="6" width="53" y="55" height="44" fill="white"/><rect x="124" width="53" y="55" height="44" fill="white"/></g><g stroke="steelblue" transform="translate(408,516)"><rect x="65" width="53" y="55" height="44" fill="yellow"/><rect x="65" width="53" y="6" height="44" fill="white"/><rect x="6" width="53" y="55" height="44" fill="white"/><rect x="124" width="53" y="55" height="44" fill="white"/></g><g stroke="steelblue" transform="translate(408,687)"><rect x="65" width="53" y="55" height="44" fill="yellow"/><rect x="6" width="53" y="55" height="44" fill="white"/><rect x="124" width="53" y="55" height="44" fill="white"/><rect x="6" width="53" y="104" height="44" fill="white"/><rect x="65" width="53" y="104" height="44" fill="white"/><rect x="124" width="53" y="104" height="44" fill="white"/></g><g stroke="steelblue" transform="translate(408,858)"><rect x="65" width="53" y="55" height="44" fill="yellow"/><rect x="6" width="53" y="6" height="44" fill="white"/><rect x="65" width="53" y="6" height="44" fill="white"/><rect x="124" width="53" y="55" height="44" fill="white"/><rect x="6" width="53" y="104" height="44" fill="white"/><rect x="124" width="53" y="104" height="44" fill="white"/></g><g stroke="steelblue" transform="translate(408,1029)"><rect x="65" width="53" y="55" height="44" fill="yellow"/><rect x="65" width="53" y="6" height="44" fill="white"/><rect x="6" width="53" y="55" height="44" fill="white"/><rect x="6" width="53" y="104" height="44" fill="white"/><rect x="65" width="53" y="104" height="44" fill="white"/></g><g stroke="steelblue" transform="translate(408,1200)"><rect x="65" width="53" y="55" height="44" fill="yellow"/><rect x="65" width="53" y="6" height="44" fill="white"/><rect x="6" width="53" y="55" height="44" fill="white"/><rect x="124" width="53" y="55" height="44" fill="white"/><rect x="6" width="53" y="104" height="44" fill="white"/><rect x="65" width="53" y="104" height="44" fill="white"/><rect x="124" width="53" y="104" height="44" fill="white"/></g><g stroke="steelblue" transform="translate(408,1371)"><rect x="65" width="53" y="55" height="44" fill="yellow"/><rect x="6" width="53" y="6" height="44" fill="white"/><rect x="65" width="53" y="6" height="44" fill="white"/><rect x="124" width="53" y="6" height="44" fill="white"/><rect x="124" width="53" y="55" height="44" fill="white"/></g><g stroke="steelblue" transform="translate(408,1542)"><rect x="65" width="53" y="55" height="44" fill="yellow"/><rect x="6" width="53" y="6" height="44" fill="white"/><rect x="124" width="53" y="6" height="44" fill="white"/><rect x="6" width="53" y="55" height="44" fill="white"/><rect x="124" width="53" y="55" height="44" fill="white"/><rect x="124" width="53" y="104" height="44" fill="white"/></g><g stroke="steelblue" transform="translate(611,3)"><rect x="65" width="53" y="55" height="44" fill="yellow"/><rect x="65" width="53" y="6" height="44" fill="white"/><rect x="6" width="53" y="55" height="44" fill="white"/><rect x="6" width="53" y="104" height="44" fill="white"/><rect x="65" width="53" y="104" height="44" fill="white"/><rect x="124" width="53" y="55" height="44" fill="white"/><rect x="124" width="53" y="104" height="44" fill="white"/></g><g stroke="steelblue" transform="translate(611,174)"><rect x="65" width="53" y="55" height="44" fill="yellow"/><rect x="6" width="53" y="6" height="44" fill="white"/><rect x="65" width="53" y="6" height="44" fill="white"/></g><g stroke="steelblue" transform="translate(611,345)"><rect x="65" width="53" y="55" height="44" fill="yellow"/><rect x="65" width="53" y="6" height="44" fill="white"/><rect x="6" width="53" y="55" height="44" fill="white"/><rect x="124" width="53" y="55" height="44" fill="white"/><rect x="65" width="53" y="104" height="44" fill="white"/></g><g stroke="steelblue" transform="translate(611,516)"><rect x="65" width="53" y="55" height="44" fill="yellow"/><rect x="6" width="53" y="104" height="44" fill="white"/></g><g stroke="steelblue" transform="translate(611,687)"><rect x="65" width="53" y="55" height="44" fill="yellow"/><rect x="6" width="53" y="6" height="44" fill="white"/><rect x="124" width="53" y="6" height="44" fill="white"/><rect x="6" width="53" y="55" height="44" fill="white"/><rect x="124" width="53" y="55" height="44" fill="white"/></g><g stroke="steelblue" transform="translate(611,858)"><rect x="65" width="53" y="55" height="44" fill="yellow"/><rect x="124" width="53" y="6" height="44" fill="white"/><rect x="6" width="53" y="55" height="44" fill="white"/><rect x="65" width="53" y="104" height="44" fill="white"/></g><g stroke="steelblue" transform="translate(611,1029)"><rect x="65" width="53" y="55" height="44" fill="yellow"/><rect x="6" width="53" y="55" height="44" fill="white"/><rect x="124" width="53" y="55" height="44" fill="white"/><rect x="65" width="53" y="104" height="44" fill="white"/></g><g stroke="steelblue" transform="translate(611,1200)"><rect x="65" width="53" y="55" height="44" fill="yellow"/><rect x="6" width="53" y="6" height="44" fill="white"/><rect x="65" width="53" y="6" height="44" fill="white"/><rect x="6" width="53" y="55" height="44" fill="white"/></g><g stroke="steelblue" transform="translate(611,1371)"><rect x="65" width="53" y="55" height="44" fill="yellow"/><rect x="6" width="53" y="6" height="44" fill="white"/><rect x="124" width="53" y="6" height="44" fill="white"/><rect x="6" width="53" y="55" height="44" fill="white"/><rect x="124" width="53" y="55" height="44" fill="white"/><rect x="65" width="53" y="104" height="44" fill="white"/><rect x="124" width="53" y="104" height="44" fill="white"/></g><g stroke="steelblue" transform="translate(611,1542)"><rect x="65" width="53" y="55" height="44" fill="yellow"/><rect x="6" width="53" y="6" height="44" fill="white"/><rect x="124" width="53" y="6" height="44" fill="white"/><rect x="6" width="53" y="104" height="44" fill="white"/><rect x="65" width="53" y="104" height="44" fill="white"/></g><g stroke="steelblue" transform="translate(814,3)"><rect x="65" width="53" y="55" height="44" fill="yellow"/><rect x="6" width="53" y="55" height="44" fill="white"/><rect x="6" width="53" y="104" height="44" fill="white"/><rect x="124" width="53" y="55" height="44" fill="white"/></g><g stroke="steelblue" transform="translate(814,174)"><rect x="65" width="53" y="55" height="44" fill="yellow"/><rect x="6" width="53" y="6" height="44" fill="white"/><rect x="65" width="53" y="6" height="44" fill="white"/><rect x="6" width="53" y="55" height="44" fill="white"/><rect x="124" width="53" y="55" height="44" fill="white"/><rect x="65" width="53" y="104" height="44" fill="white"/></g><g stroke="steelblue" transform="translate(814,345)"><rect x="65" width="53" y="55" height="44" fill="yellow"/><rect x="6" width="53" y="6" height="44" fill="white"/><rect x="65" width="53" y="6" height="44" fill="white"/><rect x="124" width="53" y="6" height="44" fill="white"/><rect x="6" width="53" y="55" height="44" fill="white"/><rect x="124" width="53" y="55" height="44" fill="white"/><rect x="65" width="53" y="104" height="44" fill="white"/></g><g stroke="steelblue" transform="translate(814,516)"><rect x="65" width="53" y="55" height="44" fill="yellow"/><rect x="65" width="53" y="6" height="44" fill="white"/><rect x="6" width="53" y="55" height="44" fill="white"/><rect x="124" width="53" y="55" height="44" fill="white"/><rect x="6" width="53" y="104" height="44" fill="white"/></g><g stroke="steelblue" transform="translate(814,687)"><rect x="65" width="53" y="55" height="44" fill="yellow"/><rect x="6" width="53" y="6" height="44" fill="white"/><rect x="65" width="53" y="6" height="44" fill="white"/><rect x="124" width="53" y="6" height="44" fill="white"/><rect x="6" width="53" y="55" height="44" fill="white"/><rect x="124" width="53" y="55" height="44" fill="white"/><rect x="6" width="53" y="104" height="44" fill="white"/><rect x="65" width="53" y="104" height="44" fill="white"/><rect x="124" width="53" y="104" height="44" fill="white"/></g><g stroke="steelblue" transform="translate(814,858)"><rect x="65" width="53" y="55" height="44" fill="yellow"/><rect x="65" width="53" y="6" height="44" fill="white"/><rect x="6" width="53" y="55" height="44" fill="white"/><rect x="6" width="53" y="104" height="44" fill="white"/></g><g stroke="steelblue" transform="translate(814,1029)"><rect x="65" width="53" y="55" height="44" fill="yellow"/><rect x="6" width="53" y="6" height="44" fill="white"/><rect x="6" width="53" y="55" height="44" fill="white"/><rect x="124" width="53" y="55" height="44" fill="white"/><rect x="6" width="53" y="104" height="44" fill="white"/><rect x="124" width="53" y="104" height="44" fill="white"/></g><g stroke="steelblue" transform="translate(814,1200)"><rect x="65" width="53" y="55" height="44" fill="yellow"/><rect x="65" width="53" y="6" height="44" fill="white"/><rect x="6" width="53" y="55" height="44" fill="white"/></g><g stroke="steelblue" transform="translate(814,1371)"><rect x="65" width="53" y="55" height="44" fill="yellow"/><rect x="124" width="53" y="55" height="44" fill="white"/><rect x="6" width="53" y="104" height="44" fill="white"/><rect x="65" width="53" y="104" height="44" fill="white"/></g><g stroke="steelblue" transform="translate(814,1542)"><rect x="65" width="53" y="55" height="44" fill="yellow"/><rect x="65" width="53" y="6" height="44" fill="white"/><rect x="124" width="53" y="6" height="44" fill="white"/><rect x="6" width="53" y="55" height="44" fill="white"/><rect x="124" width="53" y="55" height="44" fill="white"/><rect x="6" width="53" y="104" height="44" fill="white"/><rect x="65" width="53" y="104" height="44" fill="white"/></g></g><g aria-label="text" transform="translate(27,22.5)"><g transform="translate(2,3)"><text y="0.32em" transform="translate(65,55)">al</text><text y="0.32em" transform="translate(6,55)">ms</text><text y="0.32em" transform="translate(65,6)">tn</text><text y="0.32em" transform="translate(124,55)">ga</text><text y="0.32em" transform="translate(124,104)">fl</text></g><g transform="translate(2,174)"><text y="0.32em" transform="translate(65,55)">co</text><text y="0.32em" transform="translate(65,6)">wy</text><text y="0.32em" transform="translate(124,6)">ne</text><text y="0.32em" transform="translate(6,55)">ut</text><text y="0.32em" transform="translate(124,55)">ks</text><text y="0.32em" transform="translate(6,104)">az</text><text y="0.32em" transform="translate(65,104)">nm</text><text y="0.32em" transform="translate(124,104)">ok</text></g><g transform="translate(2,345)"><text y="0.32em" transform="translate(65,55)">hi</text></g><g transform="translate(2,516)"><text y="0.32em" transform="translate(65,55)">ks</text><text y="0.32em" transform="translate(65,6)">ne</text><text y="0.32em" transform="translate(6,55)">co</text><text y="0.32em" transform="translate(124,55)">mo</text><text y="0.32em" transform="translate(65,104)">ok</text></g><g transform="translate(2,687)"><text y="0.32em" transform="translate(65,55)">ma</text><text y="0.32em" transform="translate(6,6)">vt</text><text y="0.32em" transform="translate(65,6)">nh</text><text y="0.32em" transform="translate(6,55)">ny</text><text y="0.32em" transform="translate(6,104)">ct</text><text y="0.32em" transform="translate(65,104)">ri</text></g><g transform="translate(2,858)"><text y="0.32em" transform="translate(65,55)">mt</text><text y="0.32em" transform="translate(124,55)">nd</text><text y="0.32em" transform="translate(6,104)">id</text><text y="0.32em" transform="translate(65,104)">wy</text><text y="0.32em" transform="translate(124,104)">sd</text></g><g transform="translate(2,1029)"><text y="0.32em" transform="translate(65,55)">nm</text><text y="0.32em" transform="translate(6,6)">ut</text><text y="0.32em" transform="translate(65,6)">co</text><text y="0.32em" transform="translate(6,55)">az</text><text y="0.32em" transform="translate(124,55)">ok</text><text y="0.32em" transform="translate(124,104)">tx</text></g><g transform="translate(2,1200)"><text y="0.32em" transform="translate(65,55)">ok</text><text y="0.32em" transform="translate(6,6)">co</text><text y="0.32em" transform="translate(65,6)">ks</text><text y="0.32em" transform="translate(124,6)">mo</text><text y="0.32em" transform="translate(6,55)">nm</text><text y="0.32em" transform="translate(124,55)">ar</text><text y="0.32em" transform="translate(65,104)">tx</text></g><g transform="translate(2,1371)"><text y="0.32em" transform="translate(65,55)">sd</text><text y="0.32em" transform="translate(6,6)">mt</text><text y="0.32em" transform="translate(65,6)">nd</text><text y="0.32em" transform="translate(124,6)">mn</text><text y="0.32em" transform="translate(6,104)">wy</text><text y="0.32em" transform="translate(65,104)">ne</text><text y="0.32em" transform="translate(124,104)">ia</text></g><g transform="translate(2,1542)"><text y="0.32em" transform="translate(65,55)">va</text><text y="0.32em" transform="translate(6,6)">wv</text><text y="0.32em" transform="translate(124,6)">md</text><text y="0.32em" transform="translate(6,55)">ky</text><text y="0.32em" transform="translate(6,104)">tn</text><text y="0.32em" transform="translate(65,104)">nc</text></g><g transform="translate(205,3)"><text y="0.32em" transform="translate(65,55)">ak</text></g><g transform="translate(205,174)"><text y="0.32em" transform="translate(65,55)">ct</text><text y="0.32em" transform="translate(65,6)">ma</text><text y="0.32em" transform="translate(6,55)">ny</text><text y="0.32em" transform="translate(124,55)">ri</text></g><g transform="translate(205,345)"><text y="0.32em" transform="translate(65,55)">id</text><text y="0.32em" transform="translate(6,6)">wa</text><text y="0.32em" transform="translate(124,6)">mt</text><text y="0.32em" transform="translate(6,55)">or</text><text y="0.32em" transform="translate(124,55)">wy</text><text y="0.32em" transform="translate(65,104)">nv</text><text y="0.32em" transform="translate(124,104)">ut</text></g><g transform="translate(205,516)"><text y="0.32em" transform="translate(65,55)">ky</text><text y="0.32em" transform="translate(6,6)">il</text><text y="0.32em" transform="translate(65,6)">in</text><text y="0.32em" transform="translate(124,6)">oh</text><text y="0.32em" transform="translate(6,55)">mo</text><text y="0.32em" transform="translate(124,55)">wv</text><text y="0.32em" transform="translate(65,104)">tn</text><text y="0.32em" transform="translate(124,104)">va</text></g><g transform="translate(205,687)"><text y="0.32em" transform="translate(65,55)">mi</text><text y="0.32em" transform="translate(6,6)">mn</text><text y="0.32em" transform="translate(6,55)">wi</text><text y="0.32em" transform="translate(6,104)">il</text><text y="0.32em" transform="translate(65,104)">in</text><text y="0.32em" transform="translate(124,104)">oh</text></g><g transform="translate(205,858)"><text y="0.32em" transform="translate(65,55)">ne</text><text y="0.32em" transform="translate(65,6)">sd</text><text y="0.32em" transform="translate(6,55)">wy</text><text y="0.32em" transform="translate(124,55)">ia</text><text y="0.32em" transform="translate(6,104)">co</text><text y="0.32em" transform="translate(65,104)">ks</text><text y="0.32em" transform="translate(124,104)">mo</text></g><g transform="translate(205,1029)"><text y="0.32em" transform="translate(65,55)">ny</text><text y="0.32em" transform="translate(124,6)">vt</text><text y="0.32em" transform="translate(6,55)">pa</text><text y="0.32em" transform="translate(124,55)">ma</text><text y="0.32em" transform="translate(6,104)">nj</text><text y="0.32em" transform="translate(65,104)">ct</text><text y="0.32em" transform="translate(124,104)">ri</text></g><g transform="translate(205,1200)"><text y="0.32em" transform="translate(65,55)">or</text><text y="0.32em" transform="translate(65,6)">wa</text><text y="0.32em" transform="translate(124,55)">id</text><text y="0.32em" transform="translate(65,104)">ca</text><text y="0.32em" transform="translate(124,104)">nv</text></g><g transform="translate(205,1371)"><text y="0.32em" transform="translate(65,55)">tn</text><text y="0.32em" transform="translate(6,6)">mo</text><text y="0.32em" transform="translate(65,6)">ky</text><text y="0.32em" transform="translate(124,6)">va</text><text y="0.32em" transform="translate(6,55)">ar</text><text y="0.32em" transform="translate(124,55)">nc</text><text y="0.32em" transform="translate(6,104)">ms</text><text y="0.32em" transform="translate(65,104)">al</text><text y="0.32em" transform="translate(124,104)">ga</text></g><g transform="translate(205,1542)"><text y="0.32em" transform="translate(65,55)">wa</text><text y="0.32em" transform="translate(124,55)">id</text><text y="0.32em" transform="translate(65,104)">or</text></g><g transform="translate(408,3)"><text y="0.32em" transform="translate(65,55)">az</text><text y="0.32em" transform="translate(6,6)">nv</text><text y="0.32em" transform="translate(6,55)">ca</text><text y="0.32em" transform="translate(65,6)">ut</text><text y="0.32em" transform="translate(124,6)">co</text><text y="0.32em" transform="translate(124,55)">nm</text></g><g transform="translate(408,174)"><text y="0.32em" transform="translate(65,55)">de</text><text y="0.32em" transform="translate(65,6)">pa</text><text y="0.32em" transform="translate(124,6)">nj</text><text y="0.32em" transform="translate(6,55)">md</text></g><g transform="translate(408,345)"><text y="0.32em" transform="translate(65,55)">il</text><text y="0.32em" transform="translate(65,6)">wi</text><text y="0.32em" transform="translate(124,6)">mi</text><text y="0.32em" transform="translate(6,55)">ia</text><text y="0.32em" transform="translate(124,55)">in</text></g><g transform="translate(408,516)"><text y="0.32em" transform="translate(65,55)">la</text><text y="0.32em" transform="translate(65,6)">ar</text><text y="0.32em" transform="translate(6,55)">tx</text><text y="0.32em" transform="translate(124,55)">ms</text></g><g transform="translate(408,687)"><text y="0.32em" transform="translate(65,55)">mn</text><text y="0.32em" transform="translate(6,55)">nd</text><text y="0.32em" transform="translate(124,55)">mi</text><text y="0.32em" transform="translate(6,104)">sd</text><text y="0.32em" transform="translate(65,104)">ia</text><text y="0.32em" transform="translate(124,104)">wi</text></g><g transform="translate(408,858)"><text y="0.32em" transform="translate(65,55)">nv</text><text y="0.32em" transform="translate(6,6)">or</text><text y="0.32em" transform="translate(65,6)">id</text><text y="0.32em" transform="translate(124,55)">ut</text><text y="0.32em" transform="translate(6,104)">ca</text><text y="0.32em" transform="translate(124,104)">az</text></g><g transform="translate(408,1029)"><text y="0.32em" transform="translate(65,55)">nc</text><text y="0.32em" transform="translate(65,6)">va</text><text y="0.32em" transform="translate(6,55)">tn</text><text y="0.32em" transform="translate(6,104)">ga</text><text y="0.32em" transform="translate(65,104)">sc</text></g><g transform="translate(408,1200)"><text y="0.32em" transform="translate(65,55)">pa</text><text y="0.32em" transform="translate(65,6)">ny</text><text y="0.32em" transform="translate(6,55)">oh</text><text y="0.32em" transform="translate(124,55)">nj</text><text y="0.32em" transform="translate(6,104)">wv</text><text y="0.32em" transform="translate(65,104)">md</text><text y="0.32em" transform="translate(124,104)">de</text></g><g transform="translate(408,1371)"><text y="0.32em" transform="translate(65,55)">tx</text><text y="0.32em" transform="translate(6,6)">nm</text><text y="0.32em" transform="translate(65,6)">ok</text><text y="0.32em" transform="translate(124,6)">ar</text><text y="0.32em" transform="translate(124,55)">la</text></g><g transform="translate(408,1542)"><text y="0.32em" transform="translate(65,55)">wv</text><text y="0.32em" transform="translate(6,6)">oh</text><text y="0.32em" transform="translate(124,6)">pa</text><text y="0.32em" transform="translate(6,55)">ky</text><text y="0.32em" transform="translate(124,55)">md</text><text y="0.32em" transform="translate(124,104)">va</text></g><g transform="translate(611,3)"><text y="0.32em" transform="translate(65,55)">ar</text><text y="0.32em" transform="translate(65,6)">mo</text><text y="0.32em" transform="translate(6,55)">ok</text><text y="0.32em" transform="translate(6,104)">tx</text><text y="0.32em" transform="translate(65,104)">la</text><text y="0.32em" transform="translate(124,55)">tn</text><text y="0.32em" transform="translate(124,104)">ms</text></g><g transform="translate(611,174)"><text y="0.32em" transform="translate(65,55)">fl</text><text y="0.32em" transform="translate(6,6)">al</text><text y="0.32em" transform="translate(65,6)">ga</text></g><g transform="translate(611,345)"><text y="0.32em" transform="translate(65,55)">in</text><text y="0.32em" transform="translate(65,6)">mi</text><text y="0.32em" transform="translate(6,55)">il</text><text y="0.32em" transform="translate(124,55)">oh</text><text y="0.32em" transform="translate(65,104)">ky</text></g><g transform="translate(611,516)"><text y="0.32em" transform="translate(65,55)">me</text><text y="0.32em" transform="translate(6,104)">nh</text></g><g transform="translate(611,687)"><text y="0.32em" transform="translate(65,55)">ms</text><text y="0.32em" transform="translate(6,6)">ar</text><text y="0.32em" transform="translate(124,6)">tn</text><text y="0.32em" transform="translate(6,55)">la</text><text y="0.32em" transform="translate(124,55)">al</text></g><g transform="translate(611,858)"><text y="0.32em" transform="translate(65,55)">nh</text><text y="0.32em" transform="translate(124,6)">me</text><text y="0.32em" transform="translate(6,55)">vt</text><text y="0.32em" transform="translate(65,104)">ma</text></g><g transform="translate(611,1029)"><text y="0.32em" transform="translate(65,55)">nd</text><text y="0.32em" transform="translate(6,55)">mt</text><text y="0.32em" transform="translate(124,55)">mn</text><text y="0.32em" transform="translate(65,104)">sd</text></g><g transform="translate(611,1200)"><text y="0.32em" transform="translate(65,55)">ri</text><text y="0.32em" transform="translate(6,6)">ny</text><text y="0.32em" transform="translate(65,6)">ma</text><text y="0.32em" transform="translate(6,55)">ct</text></g><g transform="translate(611,1371)"><text y="0.32em" transform="translate(65,55)">ut</text><text y="0.32em" transform="translate(6,6)">id</text><text y="0.32em" transform="translate(124,6)">wy</text><text y="0.32em" transform="translate(6,55)">nv</text><text y="0.32em" transform="translate(124,55)">co</text><text y="0.32em" transform="translate(65,104)">az</text><text y="0.32em" transform="translate(124,104)">nm</text></g><g transform="translate(611,1542)"><text y="0.32em" transform="translate(65,55)">wi</text><text y="0.32em" transform="translate(6,6)">mn</text><text y="0.32em" transform="translate(124,6)">mi</text><text y="0.32em" transform="translate(6,104)">ia</text><text y="0.32em" transform="translate(65,104)">il</text></g><g transform="translate(814,3)"><text y="0.32em" transform="translate(65,55)">ca</text><text y="0.32em" transform="translate(6,55)">or</text><text y="0.32em" transform="translate(6,104)">nv</text><text y="0.32em" transform="translate(124,55)">az</text></g><g transform="translate(814,174)"><text y="0.32em" transform="translate(65,55)">ga</text><text y="0.32em" transform="translate(6,6)">tn</text><text y="0.32em" transform="translate(65,6)">nc</text><text y="0.32em" transform="translate(6,55)">al</text><text y="0.32em" transform="translate(124,55)">sc</text><text y="0.32em" transform="translate(65,104)">fl</text></g><g transform="translate(814,345)"><text y="0.32em" transform="translate(65,55)">ia</text><text y="0.32em" transform="translate(6,6)">sd</text><text y="0.32em" transform="translate(65,6)">mn</text><text y="0.32em" transform="translate(124,6)">wi</text><text y="0.32em" transform="translate(6,55)">ne</text><text y="0.32em" transform="translate(124,55)">il</text><text y="0.32em" transform="translate(65,104)">mo</text></g><g transform="translate(814,516)"><text y="0.32em" transform="translate(65,55)">md</text><text y="0.32em" transform="translate(65,6)">pa</text><text y="0.32em" transform="translate(6,55)">wv</text><text y="0.32em" transform="translate(124,55)">de</text><text y="0.32em" transform="translate(6,104)">va</text></g><g transform="translate(814,687)"><text y="0.32em" transform="translate(65,55)">mo</text><text y="0.32em" transform="translate(6,6)">ne</text><text y="0.32em" transform="translate(65,6)">ia</text><text y="0.32em" transform="translate(124,6)">il</text><text y="0.32em" transform="translate(6,55)">ks</text><text y="0.32em" transform="translate(124,55)">ky</text><text y="0.32em" transform="translate(6,104)">ok</text><text y="0.32em" transform="translate(65,104)">ar</text><text y="0.32em" transform="translate(124,104)">tn</text></g><g transform="translate(814,858)"><text y="0.32em" transform="translate(65,55)">nj</text><text y="0.32em" transform="translate(65,6)">ny</text><text y="0.32em" transform="translate(6,55)">pa</text><text y="0.32em" transform="translate(6,104)">de</text></g><g transform="translate(814,1029)"><text y="0.32em" transform="translate(65,55)">oh</text><text y="0.32em" transform="translate(6,6)">mi</text><text y="0.32em" transform="translate(6,55)">in</text><text y="0.32em" transform="translate(124,55)">pa</text><text y="0.32em" transform="translate(6,104)">ky</text><text y="0.32em" transform="translate(124,104)">wv</text></g><g transform="translate(814,1200)"><text y="0.32em" transform="translate(65,55)">sc</text><text y="0.32em" transform="translate(65,6)">nc</text><text y="0.32em" transform="translate(6,55)">ga</text></g><g transform="translate(814,1371)"><text y="0.32em" transform="translate(65,55)">vt</text><text y="0.32em" transform="translate(124,55)">nh</text><text y="0.32em" transform="translate(6,104)">ny</text><text y="0.32em" transform="translate(65,104)">ma</text></g><g transform="translate(814,1542)"><text y="0.32em" transform="translate(65,55)">wy</text><text y="0.32em" transform="translate(65,6)">mt</text><text y="0.32em" transform="translate(124,6)">sd</text><text y="0.32em" transform="translate(6,55)">id</text><text y="0.32em" transform="translate(124,55)">ne</text><text y="0.32em" transform="translate(6,104)">ut</text><text y="0.32em" transform="translate(65,104)">co</text></g></g></svg>